# xmcd
#
# Track frame offsets: 
#        150
#        25007
#        46354
#        64695
#        81209
#        100226
#        115637
#        134890
#        149272
#        171922
#        192716
#        213561
#        237981
#
# Disc length: 3485 seconds
#
# Revision: 1
# Processed by: cddbd v1.5.2PL0 Copyright (c) Steve Scherf et al.
# Submitted via: ExactAudioCopy v0.99pb4
#
DISCID=c10d9b0d
DTITLE=Михаил Шелег - Дождись
DYEAR=2001
DGENRE=шансон
TTITLE0=Такая судьба
TTITLE1=Я вернулся
TTITLE2=Виктор Галкин
TTITLE3=Газовый баллончик
TTITLE4=Жигули
TTITLE5=Лагерный вальс
TTITLE6=Дождись
TTITLE7=Забег в ширину
TTITLE8=Я вернусь
TTITLE9=Отгуляю ...
TTITLE10=За глаза твои карие
TTITLE11=Московская осень
TTITLE12=За удачу
EXTD=
EXTT0=
EXTT1=
EXTT2=
EXTT3=
EXTT4=
EXTT5=
EXTT6=
EXTT7=
EXTT8=
EXTT9=
EXTT10=
EXTT11=
EXTT12=
PLAYORDER=
